<svg width="400" height="300" viewBox="0 0 308 300" fill="none" xmlns="http://www.w3.org/2000/svg">
<g filter="url(#filter0_d_1_3)">
<path d="M219.75 36.6215V0L190.33 27.9285C178.74 25.524 166.704 24.0444 154 24.0444C71.0877 24.0444 4 79.5314 4 148.15C4 197.164 38.5468 239.334 88.4725 259.494V300L121.013 268.927C131.712 270.962 142.633 272.072 154 272.072C236.912 272.072 304 216.584 304 148.15C304 99.1369 269.676 56.7818 219.75 36.6215ZM41.4443 148.15C41.4443 96.9174 92.0386 55.1171 154 55.1171C156.452 55.1171 158.903 55.3021 161.355 55.4871L98.0565 115.598C91.8157 121.517 88.4725 128.915 88.4725 136.683V223.243C60.1664 206.597 41.4443 179.038 41.4443 148.15ZM154 240.999C152.886 240.999 151.548 240.814 150.434 240.814L210.166 184.032C216.407 178.113 219.75 170.715 219.75 162.947V124.661H177.403V162.022L130.597 206.597V137.793L206.377 65.8446C242.039 81.381 266.556 112.454 266.556 148.15C266.556 199.383 216.184 240.999 154 240.999Z" fill="black"/>
</g>
<defs>
<filter id="filter0_d_1_3" x="0" y="0" width="400" height="308" filterUnits="userSpaceOnUse" color-interpolation-filters="sRGB">
<feFlood flood-opacity="0" result="BackgroundImageFix"/>
<feColorMatrix in="SourceAlpha" type="matrix" values="0 0 0 0 0 0 0 0 0 0 0 0 0 0 0 0 0 0 127 0" result="hardAlpha"/>
<feOffset dy="4"/>
<feGaussianBlur stdDeviation="2"/>
<feComposite in2="hardAlpha" operator="out"/>
<feColorMatrix type="matrix" values="0 0 0 0 0 0 0 0 0 0 0 0 0 0 0 0 0 0 0.25 0"/>
<feBlend mode="normal" in2="BackgroundImageFix" result="effect1_dropShadow_1_3"/>
<feBlend mode="normal" in="SourceGraphic" in2="effect1_dropShadow_1_3" result="shape"/>
</filter>
</defs>
</svg>
