<?xml version="1.0" encoding="utf-8"?>
<!-- Generator: Adobe Illustrator 26.2.1, SVG Export Plug-In . SVG Version: 6.00 Build 0)  -->
<svg version="1.1" id="Logo" xmlns="http://www.w3.org/2000/svg" xmlns:xlink="http://www.w3.org/1999/xlink" x="0px" y="0px"
	 viewBox="0 0 134.6 162.2" style="enable-background:new 0 0 134.6 162.2;" xml:space="preserve">
<style type="text/css">
	.st0{fill:#FFFFFF;}
</style>
<path class="st0" d="M96.8,19.8V0L83.6,15.1C78.4,13.8,73,13,67.3,13C30.1,13,0,43,0,80.1c0,26.5,15.5,49.3,37.9,60.2v21.9
	l14.6-16.8c4.8,1.1,9.7,1.7,14.8,1.7c37.2,0,67.3-30,67.3-67C134.6,53.6,119.2,30.7,96.8,19.8z M16.8,80.1
	c0-27.7,22.7-50.3,50.5-50.3c1.1,0,2.2,0.1,3.3,0.2L42.2,62.5c-2.8,3.2-4.3,7.2-4.3,11.4v46.8C25.2,111.7,16.8,96.8,16.8,80.1
	L16.8,80.1z M67.3,130.3c-0.5,0-1.1-0.1-1.6-0.1l26.8-30.7c2.8-3.2,4.3-7.2,4.3-11.4V67.4H77.8v20.2l-21,24.1V74.5l34-38.9
	c16,8.4,27,25.2,27,44.5C117.8,107.8,95.2,130.3,67.3,130.3z"/>
</svg>