<svg width="400" height="300" viewBox="0 0 300 300" fill="none" xmlns="http://www.w3.org/2000/svg">
<path d="M215.75 36.6215V0L186.33 27.9285C174.74 25.524 162.704 24.0444 150 24.0444C67.0877 24.0444 0 79.5314 0 148.15C0 197.164 34.5468 239.334 84.4725 259.494V300L117.013 268.927C127.712 270.962 138.633 272.072 150 272.072C232.912 272.072 300 216.584 300 148.15C300 99.1369 265.676 56.7818 215.75 36.6215ZM37.4443 148.15C37.4443 96.9174 88.0386 55.1171 150 55.1171C152.452 55.1171 154.903 55.3021 157.355 55.4871L94.0565 115.598C87.8157 121.517 84.4725 128.915 84.4725 136.683V223.243C56.1664 206.597 37.4443 179.038 37.4443 148.15ZM150 240.999C148.886 240.999 147.548 240.814 146.434 240.814L206.166 184.032C212.407 178.113 215.75 170.715 215.75 162.947V124.661H173.403V162.022L126.597 206.597V137.793L202.377 65.8446C238.039 81.381 262.556 112.454 262.556 148.15C262.556 199.383 212.184 240.999 150 240.999Z" fill="white"/>
</svg>
