<svg width="400" height="300" viewBox="0 0 400 300" fill="none" xmlns="http://www.w3.org/2000/svg">
<path fill-rule="evenodd" clip-rule="evenodd" d="M229.498 29.6011L253.164 2.242V38.2467C293.673 58.0647 321.593 99.8231 321.593 148.124C321.593 215.574 267.147 270.266 200 270.266C190.781 270.266 181.802 269.236 173.171 267.282L146.832 297.758V257.999C106.325 238.18 78.4075 196.423 78.4075 148.124C78.4075 80.6733 132.853 25.9811 200 25.9811C210.172 25.9811 220.054 27.2364 229.498 29.6011ZM206.105 56.6452C204.087 56.5108 202.051 56.4426 200 56.4426C149.689 56.4426 108.83 97.4865 108.83 148.025C108.83 178.641 123.825 205.772 146.832 222.406V137.044C146.832 129.33 149.589 121.912 154.61 116.176L206.105 56.6452ZM197.128 239.562C198.082 239.592 199.039 239.607 200 239.607C250.212 239.607 291.17 198.563 291.17 148.025C291.17 112.894 271.426 82.3506 242.488 66.9927L180.996 138.033V205.879L219 161.967V125.176H253.164V162.857C253.164 170.571 250.407 177.89 245.386 183.725L197.128 239.562Z" fill="white"/>
</svg>
